<?xml version="1.0" encoding="UTF-8" standalone="no"?>
<!-- Created with Inkscape (http://www.inkscape.org/) -->

<svg
   width="32"
   height="32"
   viewBox="0 0 32 32"
   version="1.1"
   id="svg1"
   sodipodi:docname="favicon.svg"
   inkscape:version="1.3.2 (091e20e, 2023-11-25, custom)"
   xmlns:inkscape="http://www.inkscape.org/namespaces/inkscape"
   xmlns:sodipodi="http://sodipodi.sourceforge.net/DTD/sodipodi-0.dtd"
   xmlns="http://www.w3.org/2000/svg"
   xmlns:svg="http://www.w3.org/2000/svg">
  <sodipodi:namedview
     id="namedview1"
     pagecolor="#ffffff"
     bordercolor="#000000"
     borderopacity="0.25"
     inkscape:showpageshadow="2"
     inkscape:pageopacity="0.0"
     inkscape:pagecheckerboard="0"
     inkscape:deskcolor="#d1d1d1"
     inkscape:document-units="px"
     inkscape:zoom="22.627417"
     inkscape:cx="17.103145"
     inkscape:cy="17.677669"
     inkscape:window-width="1920"
     inkscape:window-height="991"
     inkscape:window-x="-9"
     inkscape:window-y="-9"
     inkscape:window-maximized="1"
     inkscape:current-layer="layer1" />
  <defs
     id="defs1" />
  <g
     inkscape:label="Layer 1"
     inkscape:groupmode="layer"
     id="layer1">
    <path
       style="fill:#ff00ff"
       id="path24"
       d="m 3.1593901,15.249778 c 0.032771,-0.03004 0.070007,-0.05584 0.098314,-0.09012 0.041565,-0.05033 0.075617,-0.106532 0.1099364,-0.162057 0.131833,-0.213292 0.2023269,-0.359671 0.3221442,-0.589012 0.3047488,-0.583315 0.1358754,-0.270186 0.4902317,-0.904208 0.4763017,-0.809447 0.949456,-1.622614 1.5381791,-2.357303 0.1290914,-0.161098 0.2590814,-0.322224 0.4026947,-0.470522 0.1144827,-0.118217 0.2465054,-0.218086 0.3697581,-0.32713 0.1038603,-0.05062 0.1978178,-0.131676 0.3115809,-0.15185 0.081152,-0.01439 0.3139187,0.09283 0.2413294,0.0538 -0.379601,-0.204115 -0.7437493,-0.4822209 -1.168964,-0.5526039 -0.1397299,-0.023128 0.1316939,0.2525305 0.1735356,0.3878399 0.1299855,0.420353 0.1751675,0.92985 0.2314864,1.35745 0.024977,0.291085 0.0536,0.58188 0.074931,0.873255 0.038887,0.531156 0.086285,1.464962 0.1134069,1.98496 0.052454,1.00568 0.1028488,2.011472 0.153769,3.017231 0.023309,0.7812 0.068691,1.56143 0.1044401,2.342092 0.013922,0.304026 0.032123,0.607578 0.02212,0.911917 0.5474057,0.261568 1.0690352,0.585874 1.6422169,0.784704 0.069536,0.02412 -0.011841,-0.146756 -0.015121,-0.220283 -0.0058,-0.130017 -0.010037,-0.260121 -0.012115,-0.390251 -0.00712,-0.445725 -0.00411,-0.772675 0.019552,-1.228618 0.014109,-0.27187 0.03736,-0.543187 0.05604,-0.814781 0.097633,-0.857996 0.1068668,-1.055732 0.2613496,-1.921781 0.060094,-0.336896 0.1207241,-0.674104 0.200956,-1.006779 0.1607027,-0.666341 0.416781,-1.490549 0.6694472,-2.129296 0.1231378,-0.311296 0.2730517,-0.611322 0.4095776,-0.916983 0.3022651,-0.521441 0.4426371,-0.857636 0.8690921,-1.271957 0.12909,-0.125417 0.27346,-0.240905 0.435575,-0.319088 0.130941,-0.06315 0.28002,-0.09679 0.425392,-0.09613 0.137604,6.3e-4 0.514502,0.17704 0.400546,0.09991 -0.387442,-0.262249 -0.823905,-0.443537 -1.235858,-0.665305 0.122956,0.121064 0.261565,0.228062 0.368869,0.363194 0.27656,0.348282 0.460869,0.759589 0.611906,1.173575 0.291171,0.79809 0.4192,1.599732 0.560062,2.432169 0.218109,1.476101 0.320816,2.965635 0.42153,4.45334 0.01784,0.245494 0.03441,0.521392 0.06322,0.769367 0.0066,0.05638 -0.02179,0.13764 0.02599,0.168286 0.560178,0.359317 1.124383,0.73063 1.746001,0.968328 0.08758,0.03349 0.06658,-0.176144 0.08554,-0.267973 0.02313,-0.112026 0.02676,-0.227207 0.04013,-0.340811 0.110103,-1.251704 0.252162,-2.501161 0.467962,-3.739473 0.05766,-0.33084 0.124242,-0.660061 0.186362,-0.990091 0.202985,-0.963959 0.434341,-1.907551 0.847381,-2.80673 0.210236,-0.457681 0.537415,-1.061964 0.89671,-1.434613 0.154658,-0.160405 0.353929,-0.270794 0.530893,-0.406191 0.467154,-0.13987 0.580521,-0.260692 1.058483,-0.07686 0.167877,0.06457 0.625665,0.348679 0.456381,0.287892 -0.446734,-0.160414 -0.822409,-0.561528 -1.296248,-0.589474 -0.210509,-0.01242 0.246272,0.344509 0.340594,0.533113 0.106582,0.21312 0.172797,0.444141 0.259195,0.666212 0.06122,0.262033 0.136064,0.521252 0.183658,0.786099 0.153993,0.856927 0.174029,1.733425 0.185526,2.601248 0.0012,0.09142 0.0064,1.528526 0.0069,1.645665 0.01506,0.639088 0.01423,1.285444 0.14986,1.913902 0.05173,0.239713 0.153235,0.576875 0.288939,0.792749 0.05639,0.0897 0.138241,0.160605 0.207362,0.240908 0.708442,0.39339 1.392585,0.83414 2.125325,1.18017 0.09848,0.04651 0.219497,3.98e-4 0.325961,-0.02257 0.398712,-0.08603 0.764515,-0.342883 1.063717,-0.607718 0.124766,-0.110434 0.236823,-0.234444 0.355234,-0.351667 0.495973,-0.560242 0.901012,-1.194353 1.228764,-1.865968 0.207351,-0.424897 0.274004,-0.617488 0.448776,-1.057794 0,0 -2.030617,-1.13182 -2.030617,-1.13182 v 0 c -0.16943,0.440664 -0.22887,0.617201 -0.426342,1.044343 -0.303654,0.656819 -0.676654,1.279879 -1.142764,1.835139 -0.108073,0.112395 -0.209055,0.232067 -0.324217,0.337185 -0.180601,0.164849 -0.417143,0.337257 -0.646764,0.431709 -0.09415,0.03873 -0.1938,0.06931 -0.295208,0.07827 -0.08912,0.0079 -0.339462,-0.08092 -0.26687,-0.02863 0.501825,0.361513 1.052811,0.64936 1.579216,0.974039 -0.08683,-0.06117 -0.189272,-0.104707 -0.260491,-0.183503 -0.160285,-0.17734 -0.286712,-0.532673 -0.345171,-0.746893 -0.169174,-0.619935 -0.183305,-1.266794 -0.207863,-1.904111 -0.01274,-0.553911 -0.01962,-1.107948 -0.03295,-1.661844 -0.02127,-0.883667 -0.04786,-1.772826 -0.191598,-2.647042 -0.0447,-0.271857 -0.112735,-0.539358 -0.169103,-0.809036 C 20.275163,12.253479 20.022389,11.3996 19.792474,11.209568 19.136738,10.667583 18.399969,10.230772 17.681597,9.7750563 17.34939,9.5643132 17.011205,9.4627324 16.614781,9.5356066 c -0.202088,0.03715 -0.383057,0.1488182 -0.574586,0.2232273 -0.18381,0.1517513 -0.38977,0.2800951 -0.55143,0.4552541 -0.371012,0.401993 -0.686174,0.998019 -0.908999,1.4854 -0.137653,0.301086 -0.263726,0.608119 -0.370515,0.921484 -0.192562,0.565056 -0.357074,1.34299 -0.490978,1.920716 -0.06368,0.331315 -0.132172,0.661743 -0.191048,0.993946 -0.219616,1.23917 -0.369663,2.489757 -0.481719,3.742867 -0.01157,0.108649 -0.02986,0.216792 -0.03471,0.325948 -0.0014,0.03066 -0.0096,0.07404 0.01622,0.09063 0.545759,0.350773 1.096334,0.697246 1.672771,0.994927 0.04862,0.02511 -0.03841,-0.102957 -0.04936,-0.156574 -0.04789,-0.234367 -0.06864,-0.54518 -0.09005,-0.773381 -0.135395,-1.500022 -0.244787,-3.003742 -0.467406,-4.494261 -0.04738,-0.28871 -0.08796,-0.578618 -0.142137,-0.86613 -0.103989,-0.551864 -0.221001,-1.071986 -0.400657,-1.604161 -0.14556,-0.431173 -0.317839,-0.85198 -0.575323,-1.23022 -0.100601,-0.147781 -0.229989,-0.27376 -0.344984,-0.410641 -0.67519,-0.380989 -1.325374,-0.81016 -2.02557,-1.142967 -0.134784,-0.064063 -0.298765,-0.052762 -0.446554,-0.032048 -0.5944696,0.083321 -1.045051,0.61893 -1.3516838,1.084742 -0.1603303,0.243561 -0.2849777,0.508821 -0.4274665,0.763232 -0.1361345,0.311472 -0.2849246,0.617715 -0.4084036,0.934418 -0.2604249,0.667946 -0.5055873,1.460651 -0.671853,2.15702 -0.080079,0.335395 -0.139821,0.675404 -0.2007832,1.014795 -0.1623256,0.903704 -0.1657081,1.039738 -0.2725188,1.933205 -0.02131,0.272556 -0.046546,0.544834 -0.063931,0.817669 -0.030801,0.483384 -0.03773,0.764235 -0.038206,1.231628 -1.333e-4,0.130618 0.00249,0.261226 0.00477,0.391823 0.00133,0.07628 -0.057577,0.186749 0.00608,0.228798 0.5185756,0.342536 1.1008055,0.577264 1.6512083,0.865896 C 8.304485,20.292568 8.2170677,19.182658 8.1244928,18.073354 8.057981,17.18683 8.0412984,16.988213 7.9810996,16.086078 7.9131218,15.067367 7.859632,14.047394 7.7819925,13.029344 7.7595911,12.735606 7.7318314,12.442302 7.7067508,12.148781 7.6479627,11.662786 7.6134981,11.230361 7.4946424,10.757432 7.4567614,10.606702 7.4655537,10.415007 7.346223,10.315435 6.8658479,9.9146009 6.3151387,9.6008815 5.7608502,9.3107216 5.6791628,9.2679598 5.5716538,9.3075665 5.485973,9.3416285 5.3719781,9.3869467 5.2804273,9.4755885 5.1776544,9.5425684 5.0636302,9.664954 4.9409416,9.7798056 4.8355818,9.909725 c -0.2651157,0.326915 -0.524556,0.744652 -0.735204,1.104322 -0.3584729,0.612072 -0.6823765,1.245446 -0.9721561,1.892718 -0.1843124,0.43586 -0.3814451,0.868552 -0.5496345,1.311069 -0.034284,0.0902 -0.062557,0.182592 -0.095748,0.273203 -0.1293378,0.35309 -0.019998,0.02869 -0.1024558,0.278054 z" />
    <path
       style="fill:#bb00bb;fill-opacity:1"
       id="path25"
       d="m 17.965408,5.6834928 c 0.03802,-0.015308 0.0791,-0.024528 0.114054,-0.045923 0.04581,-0.028038 0.08329,-0.067853 0.125696,-0.1008143 0.08798,-0.068382 0.189558,-0.1215986 0.265436,-0.2032003 0.09525,-0.1024354 0.160479,-0.2291573 0.242172,-0.3426995 0.226712,-0.3150989 0.391551,-0.5338057 0.62502,-0.8474947 0.31822,-0.4014991 0.653398,-0.7965262 1.086991,-1.0790727 0.236248,-0.1539482 0.406873,-0.2655102 0.696141,-0.1799707 0.113711,0.033626 0.203071,0.1224994 0.304606,0.1837491 -0.282366,-0.1163749 -0.543764,-0.3846394 -0.847099,-0.3491245 -0.158451,0.018552 0.163424,0.2751205 0.226081,0.4218339 0.07026,0.164512 0.123974,0.336075 0.171278,0.508594 0.160756,0.5862857 0.22918,1.1971121 0.307103,1.7980881 0.07984,0.7398654 0.135095,1.4820995 0.208031,2.2226122 0.503657,0.2207977 0.979051,0.5228141 1.510973,0.6623931 0.08473,0.022234 0.0081,-0.1750161 0.01307,-0.2624773 0.0075,-0.1333763 0.01394,-0.2668438 0.02437,-0.4000254 0.03151,-0.4024676 0.0607,-0.6846452 0.132103,-1.0891933 0.03844,-0.2177852 0.0884,-0.4333798 0.132598,-0.6500697 0.152222,-0.6513884 0.35268,-1.2936633 0.632696,-1.9023081 0.125886,-0.2736279 0.326236,-0.6526644 0.521994,-0.893702 0.07798,-0.096023 0.17724,-0.1726088 0.26586,-0.2589132 0.08547,-0.04154 0.161431,-0.1215584 0.256411,-0.1246187 0.08866,-0.00286 0.322095,0.1486946 0.242999,0.1085274 -0.422384,-0.2144979 -0.814767,-0.5118575 -1.2731,-0.6316416 -0.134555,-0.035166 0.165957,0.2268064 0.217821,0.3558473 0.152817,0.3802124 0.186804,0.8277807 0.241925,1.225477 0.07281,1.0223423 0.03413,0.384491 0.07943,1.3907271 0.0093,0.2074934 0.01062,0.4155764 0.02969,0.6224027 0.0294,0.3188817 0.08065,0.6739731 0.210561,0.9729296 0.04622,0.1063542 0.121625,0.1974728 0.182437,0.2962092 0.622655,0.3674244 1.217287,0.7871246 1.867964,1.102273 0.09993,0.048401 0.224751,-0.00505 0.331027,-0.037216 0.292818,-0.088626 0.546581,-0.2872657 0.763459,-0.4932167 0.37234,-0.35358 0.557644,-0.6365795 0.872971,-1.0518244 0.142909,-0.2063319 0.285818,-0.4126638 0.428728,-0.6189957 0,0 -1.711771,-1.0073584 -1.711771,-1.0073584 v 0 c -0.141654,0.2036586 -0.283308,0.4073172 -0.424963,0.6109758 -0.300064,0.3924036 -0.491556,0.6778755 -0.84188,1.0152352 -0.108875,0.1048456 -0.223399,0.2062751 -0.351587,0.2863629 -0.09284,0.058006 -0.196508,0.104571 -0.304345,0.1234407 -0.08459,0.014801 -0.3254,-0.076404 -0.256371,-0.025324 0.42918,0.3175781 0.907833,0.5621773 1.361749,0.843266 C 26.570356,7.753829 26.474592,7.6819998 26.415602,7.582982 26.268224,7.3356023 26.17436,6.9046315 26.138855,6.6358329 26.111447,6.428334 26.109332,6.2182634 26.097004,6.0093256 26.016945,4.6525382 26.110954,5.9864759 26.007364,4.5967122 25.95571,4.1855726 25.917984,3.7082752 25.786067,3.3087636 25.494018,2.4242893 24.740428,2.2866868 23.812933,1.7923099 c -0.08871,-0.047284 -0.205442,-0.027266 -0.301561,0.00216 -0.10369,0.031747 -0.183139,0.1161819 -0.274708,0.1742729 -0.08834,0.099111 -0.186339,0.1903995 -0.265034,0.2973339 -0.190947,0.2594685 -0.388701,0.6469555 -0.516108,0.9342214 -0.275894,0.6220632 -0.476745,1.2749373 -0.633808,1.9361194 -0.04709,0.2187338 -0.100027,0.4362887 -0.141257,0.6562013 -0.09314,0.4968057 -0.145773,0.9981899 -0.170959,1.5025988 -0.0042,0.084087 -0.07526,0.202081 -0.0078,0.2524551 0.458821,0.342619 0.993508,0.5697016 1.490262,0.8545523 C 22.934547,8.1769705 22.913108,7.9430832 22.882465,7.7131486 22.811592,7.1813457 22.744699,6.6488486 22.6536,6.1199866 22.543332,5.4863952 22.435262,4.8554018 22.240129,4.2407946 22.199008,4.1112753 21.937807,3.352644 21.806545,3.2369892 21.3766,2.8581639 20.868273,2.5788926 20.399136,2.2498443 20.286021,2.2081869 20.179761,2.1365908 20.05979,2.1248721 19.780532,2.0975945 19.570904,2.2393659 19.364651,2.4027713 18.959954,2.7233948 18.656889,3.1528074 18.36068,3.568686 c -0.288312,0.4512612 -0.296531,0.4429479 -0.540576,0.9050147 -0.06511,0.1232696 -0.141173,0.242539 -0.186258,0.3744539 -0.03489,0.1020735 -0.02737,0.2143126 -0.05094,0.3195765 -0.01062,0.04742 -0.03412,0.091001 -0.05118,0.1365018 -0.0058,0.031303 -0.01161,0.062606 -0.01741,0.09391 z" />
  </g>
</svg>
